<?xml version="1.0" encoding="UTF-8" standalone="no"?>
<svg
   xmlns:dc="http://purl.org/dc/elements/1.1/"
   xmlns:cc="http://creativecommons.org/ns#"
   xmlns:rdf="http://www.w3.org/1999/02/22-rdf-syntax-ns#"
   xmlns:svg="http://www.w3.org/2000/svg"
   xmlns="http://www.w3.org/2000/svg"
   id="svg5006"
   version="1.1"
   viewBox="0 0 208.11477 36"
   height="36mm"
   width="208.11475mm">
  <defs
     id="defs5000" />
  <metadata
     id="metadata5003">
    <rdf:RDF>
      <cc:Work
         rdf:about="">
        <dc:format>image/svg+xml</dc:format>
        <dc:type
           rdf:resource="http://purl.org/dc/dcmitype/StillImage" />
        <dc:title></dc:title>
      </cc:Work>
    </rdf:RDF>
  </metadata>
  <g
     transform="translate(142.08285,-162.29762)"
     id="layer1">
    <g
       transform="translate(-461.53741,134.48813)"
       id="g6256"
       style="display:inline">
      <g
         id="flowRoot43214-7-5-49-8-4-1-4"
         style="font-style:normal;font-variant:normal;font-weight:bold;font-stretch:normal;font-size:96px;line-height:1.25;font-family:'Gill Sans MT';-inkscape-font-specification:'Gill Sans MT, Bold';font-variant-ligatures:normal;font-variant-caps:normal;font-variant-numeric:normal;font-feature-settings:normal;text-align:start;letter-spacing:0px;word-spacing:0px;writing-mode:lr-tb;text-anchor:start;display:inline;fill:#263238;fill-opacity:1;stroke:none"
         transform="matrix(0.26458333,0,0,0.26458333,276.86726,-19.372333)"
         aria-label="IDAL">
        <path
           id="path7898"
           style="font-style:normal;font-variant:normal;font-weight:bold;font-stretch:normal;font-size:96px;font-family:'Gill Sans MT';-inkscape-font-specification:'Gill Sans MT, Bold';font-variant-ligatures:normal;font-variant-caps:normal;font-variant-numeric:normal;font-feature-settings:normal;text-align:start;writing-mode:lr-tb;text-anchor:start;fill:#263238;fill-opacity:1"
           d="m 289.90234,212.24225 v 65.48437 h -16.3125 v -65.48437 z" />
        <path
           id="path7900"
           style="font-style:normal;font-variant:normal;font-weight:bold;font-stretch:normal;font-size:96px;font-family:'Gill Sans MT';-inkscape-font-specification:'Gill Sans MT, Bold';font-variant-ligatures:normal;font-variant-caps:normal;font-variant-numeric:normal;font-feature-settings:normal;text-align:start;writing-mode:lr-tb;text-anchor:start;fill:#263238;fill-opacity:1"
           d="m 304.99609,212.24225 h 28.875 q 16.73438,0 26.4375,9.1875 9.75,9.14062 9.75,23.67187 0,15.23438 -9.89062,23.95313 -9.84375,8.67187 -28.125,8.67187 h -27.04688 z m 16.3125,12 v 41.48437 h 10.64063 q 10.35937,0 15.84375,-5.67187 5.48437,-5.71875 5.48437,-15.04688 0,-9.65625 -5.57812,-15.1875 -5.53125,-5.57812 -15.9375,-5.57812 z" />
        <path
           id="path7902"
           style="font-style:normal;font-variant:normal;font-weight:bold;font-stretch:normal;font-size:96px;font-family:'Gill Sans MT';-inkscape-font-specification:'Gill Sans MT, Bold';font-variant-ligatures:normal;font-variant-caps:normal;font-variant-numeric:normal;font-feature-settings:normal;text-align:start;writing-mode:lr-tb;text-anchor:start;fill:#263238;fill-opacity:1"
           d="m 415.19922,212.24225 29.0625,65.48437 h -17.53125 l -5.39063,-12.9375 h -29.29687 l -4.875,12.9375 h -17.29688 l 26.39063,-65.48437 z m 1.3125,41.10937 -10.54688,-25.45312 -9.60937,25.45312 z" />
        <path
           id="path7904"
           style="font-style:normal;font-variant:normal;font-weight:bold;font-stretch:normal;font-size:96px;font-family:'Gill Sans MT';-inkscape-font-specification:'Gill Sans MT, Bold';font-variant-ligatures:normal;font-variant-caps:normal;font-variant-numeric:normal;font-feature-settings:normal;text-align:start;writing-mode:lr-tb;text-anchor:start;fill:#263238;fill-opacity:1"
           d="m 501.82422,265.72662 v 12 h -49.92188 v -65.48437 h 16.3125 v 53.48437 z" />
      </g>
      <g
         id="flowRoot43214-4-3-7-3-8-7-5-7"
         style="font-style:normal;font-variant:normal;font-weight:bold;font-stretch:normal;font-size:95.6782074px;line-height:1.25;font-family:'Gill Sans MT';-inkscape-font-specification:'Gill Sans MT, Bold';font-variant-ligatures:normal;font-variant-caps:normal;font-variant-numeric:normal;font-feature-settings:normal;text-align:start;letter-spacing:0px;word-spacing:0px;writing-mode:lr-tb;text-anchor:start;display:inline;fill:#fbc02d;fill-opacity:1;stroke:none;stroke-width:0.99664795"
         transform="matrix(0.26547321,0,0,0.26547321,342.22064,-19.567953)"
         aria-label="CAPITAL">
        <path
           id="path7883"
           style="font-style:normal;font-variant:normal;font-weight:bold;font-stretch:normal;font-size:95.6782074px;font-family:'Gill Sans MT';-inkscape-font-specification:'Gill Sans MT, Bold';font-variant-ligatures:normal;font-variant-caps:normal;font-variant-numeric:normal;font-feature-settings:normal;text-align:start;writing-mode:lr-tb;text-anchor:start;fill:#fbc02d;fill-opacity:1;stroke-width:0.99664795"
           d="m 333.82951,257.54315 v 14.24896 q -12.24009,6.49378 -25.64812,6.49378 -17.37905,0 -27.7037,-9.57716 -10.27793,-9.62389 -10.27793,-23.68597 0,-14.06208 10.83855,-23.87283 10.88526,-9.81075 28.40446,-9.81075 13.96865,0 23.63925,5.74629 v 14.52926 q -11.86634,-6.68065 -22.4713,-6.68065 -10.41808,0 -17.05202,5.60614 -6.58722,5.55943 -6.58722,14.20224 0,8.68952 6.49378,14.34238 6.5405,5.65287 16.725,5.65287 5.04553,0 9.71732,-1.3081 4.67179,-1.35482 13.92193,-5.88646 z" />
        <path
           id="path7885"
           style="font-style:normal;font-variant:normal;font-weight:bold;font-stretch:normal;font-size:95.6782074px;font-family:'Gill Sans MT';-inkscape-font-specification:'Gill Sans MT, Bold';font-variant-ligatures:normal;font-variant-caps:normal;font-variant-numeric:normal;font-feature-settings:normal;text-align:start;writing-mode:lr-tb;text-anchor:start;fill:#fbc02d;fill-opacity:1;stroke-width:0.99664795"
           d="m 384.98558,212.1801 28.96508,65.26487 h -17.47249 l -5.37255,-12.89413 h -29.19867 l -4.85866,12.89413 h -17.2389 l 26.30216,-65.26487 z m 1.3081,40.97157 -10.51153,-25.3678 -9.57716,25.3678 z" />
        <path
           id="path7887"
           style="font-style:normal;font-variant:normal;font-weight:bold;font-stretch:normal;font-size:95.6782074px;font-family:'Gill Sans MT';-inkscape-font-specification:'Gill Sans MT, Bold';font-variant-ligatures:normal;font-variant-caps:normal;font-variant-numeric:normal;font-feature-settings:normal;text-align:start;writing-mode:lr-tb;text-anchor:start;fill:#fbc02d;fill-opacity:1;stroke-width:0.99664795"
           d="m 422.21972,212.1801 h 29.10523 q 9.90419,0 15.74393,5.7463 5.83973,5.74629 5.83973,13.5949 0,8.12891 -5.79301,13.92192 -5.7463,5.79302 -15.69721,5.79302 h -12.94085 v 26.20873 h -16.25782 z m 16.25782,11.95977 v 15.1366 h 7.56829 q 10.13778,0 10.13778,-7.5683 0,-4.25133 -2.70963,-5.88645 -2.70964,-1.68185 -9.25014,-1.68185 z" />
        <path
           id="path7889"
           style="font-style:normal;font-variant:normal;font-weight:bold;font-stretch:normal;font-size:95.6782074px;font-family:'Gill Sans MT';-inkscape-font-specification:'Gill Sans MT, Bold';font-variant-ligatures:normal;font-variant-caps:normal;font-variant-numeric:normal;font-feature-settings:normal;text-align:start;writing-mode:lr-tb;text-anchor:start;fill:#fbc02d;fill-opacity:1;stroke-width:0.99664795"
           d="m 501.17292,212.1801 v 65.26487 H 484.9151 V 212.1801 Z" />
        <path
           id="path7891"
           style="font-style:normal;font-variant:normal;font-weight:bold;font-stretch:normal;font-size:95.6782074px;font-family:'Gill Sans MT';-inkscape-font-specification:'Gill Sans MT, Bold';font-variant-ligatures:normal;font-variant-caps:normal;font-variant-numeric:normal;font-feature-settings:normal;text-align:start;writing-mode:lr-tb;text-anchor:start;fill:#fbc02d;fill-opacity:1;stroke-width:0.99664795"
           d="m 575.22076,212.1801 v 11.95977 h -23.63925 v 53.3051 h -16.25782 v -53.3051 H 511.68445 V 212.1801 Z" />
        <path
           id="path7893"
           style="font-style:normal;font-variant:normal;font-weight:bold;font-stretch:normal;font-size:95.6782074px;font-family:'Gill Sans MT';-inkscape-font-specification:'Gill Sans MT, Bold';font-variant-ligatures:normal;font-variant-caps:normal;font-variant-numeric:normal;font-feature-settings:normal;text-align:start;writing-mode:lr-tb;text-anchor:start;fill:#fbc02d;fill-opacity:1;stroke-width:0.99664795"
           d="m 611.84757,212.1801 28.96509,65.26487 h -17.47249 l -5.37255,-12.89413 h -29.19868 l -4.85865,12.89413 h -17.2389 l 26.30216,-65.26487 z m 1.30811,40.97157 -10.51153,-25.3678 -9.57716,25.3678 z" />
        <path
           id="path7895"
           style="font-style:normal;font-variant:normal;font-weight:bold;font-stretch:normal;font-size:95.6782074px;font-family:'Gill Sans MT';-inkscape-font-specification:'Gill Sans MT, Bold';font-variant-ligatures:normal;font-variant-caps:normal;font-variant-numeric:normal;font-feature-settings:normal;text-align:start;writing-mode:lr-tb;text-anchor:start;fill:#fbc02d;fill-opacity:1;stroke-width:0.99664795"
           d="m 698.1822,265.48519 v 11.95978 H 648.42767 V 212.1801 h 16.25782 v 53.30509 z" />
      </g>
      <g
         id="g8735-5-8-0-0-7-3-9"
         transform="matrix(0.75000001,0,0,0.75000001,285.86083,-63.831073)"
         style="display:inline;stroke-width:1.33333337">
        <g
           style="fill:#263238;fill-opacity:1;stroke-width:1.33333337"
           transform="matrix(0.29999924,0,0,0.2999999,31.591717,131.18749)"
           clip-path="none"
           id="g44577-8-4-4-0-5-5-7">
          <g
             style="fill:#263238;fill-opacity:1;stroke-width:1.33333337"
             id="g44575-0-4-2-6-42-1-0">
            <path
               transform="matrix(0.26458333,0,0,0.26458333,7.9999959,-127.00001)"
               id="path737-8-4-64-5-5-6-1"
               d="M 362.83594,517.79492 H 136.0625 L 362.83398,971.33789 589.60547,517.79492 h -75.58985 l -75.58984,151.18164 z"
               style="fill:#263238;fill-opacity:1;stroke:none;stroke-width:9.60561752;stroke-linecap:round;stroke-linejoin:round;stroke-miterlimit:4;stroke-dasharray:38.42246961, 9.6056174;stroke-dashoffset:0;stroke-opacity:1;paint-order:markers stroke fill" />
          </g>
        </g>
        <g
           transform="matrix(0.29999924,0,0,0.2999999,31.591717,131.18749)"
           clip-path="none"
           id="g44587-8-7-6-9-02-76-0"
           style="stroke-width:1.33333337">
          <g
             id="g44585-5-8-44-4-3-4-2"
             style="stroke-width:1.33333337">
            <a
               id="a44571-2-7-4-5-0-8-16"
               style="stroke-width:1.33333337">
              <path
                 transform="matrix(0.26458333,0,0,0.26458333,7.9999959,-127.00001)"
                 id="path725-9-6-9-5-1-0-6"
                 d="M 287.24414,366.61328 H 173.85742 L 400.63086,820.1582 627.40234,366.61328 H 589.60742 L 438.42578,668.97656 Z"
                 style="fill:#fbc02d;fill-opacity:1;stroke-width:2.43167949" />
            </a>
          </g>
        </g>
      </g>
    </g>
  </g>
</svg>
